<?xml version="1.0" encoding="UTF-8" standalone="yes"?>
<svg version="1.1" id="Layer_1" xmlns:x="&amp;ns_extend;" xmlns:i="&amp;ns_ai;" xmlns:graph="&amp;ns_graphs;" xmlns="http://www.w3.org/2000/svg" xmlns:xlink="http://www.w3.org/1999/xlink" x="0px" y="0px" viewBox="0 0 315 195.7700043" style="enable-background:new 0 0 315 195.7700043;" xml:space="preserve">
      <style type="text/css">.st0{fill:url(#SVGID_1_);}</style>
    <metadata>
              <sfw>
                      <slices/>
            <sliceSourceBounds bottomLeftOrigin="true" height="195.7602081" width="314.9981689" x="-0.000001" y="0.0057142"/>
                  </sfw>
          </metadata>
    <g id="color_index_g">
              <linearGradient id="SVGID_1_" gradientUnits="userSpaceOnUse" x1="435.6179504" y1="-729.3345947" x2="-176.1628265" y2="-348.3660278" gradientTransform="matrix(1 0 0 -1 0 -450.1100159)">
                      <stop offset="0.05158" style="stop-color:#FF9100"/>
            <stop offset="0.63019" style="stop-color:#000049"/>
                  </linearGradient>
        <path class="st0" d="M108.8199997,100.4099579l8.9700012,2.0400009c-3.8399963,4.409996-7.0299988,10.090004-9.0100021,17.4000015&#x9;&#x9;C108.7799988,119.8499527,108.5699997,111.0699463,108.8199997,100.4099579z M9.8999996,115.8999557&#x9;&#x9;c-0.4799995-2.1699982-0.8500004-4.4700012-1.0900002-6.8700027c-1.4000001-13.9000015,2.0500002-25.6299973,7.7199993-26.2099991&#x9;&#x9;c3.0200005-0.3099976,6.0599995,2.6200027,8.4500008,7.5299988c-3.5799999-8.2799988-9.3299999-15.7699966-13.0100002-14.7099991&#x9;&#x9;C1.1299992,78.7399521-0.000001,101.2499542-0.000001,101.2499542h3.26c-0.46,2.8399963-1.0599999,14.6500015-1.0599999,14.6500015&#x9;&#x9;H9.8999996z M26.8199997,106.619957c-1-9.9499969-5.1100006-17.6800003-9.1599998-17.2699966&#x9;&#x9;c-4.0599995,0.4100037-6.5300007,8.8099976-5.5300007,18.7600021s5.1000004,17.6900024,9.1599998,17.2799988&#x9;&#x9;C25.3500004,124.9699631,27.8199997,116.5699463,26.8199997,106.619957z M22.0300007,118.369957&#x9;&#x9;c-1.3400002,0.0100021-5.75-4.4400024-6.3600006-10.4700012c-0.6099997-6.0400009,2.6399994-11,4.1599998-11.3799973&#x9;&#x9;c2.3999996-0.5899963,4.9499989,4.4400024,5.5599995,10.4799957&#x9;&#x9;C25.9899998,113.029953,24.5100002,118.3499527,22.0300007,118.369957z M21.4200001,99.5899582&#x9;&#x9;c-2.3799992,0.7900009-3.960001,5.6100006-3.960001,5.6100006c0.6000004-4.2900009,3.1000004-6.8000031,3.1000004-6.8000031&#x9;&#x9;C21.4699993,98.9999466,21.4200001,99.5899582,21.4200001,99.5899582z M3.52,82.2399521&#x9;&#x9;c0,0,7.2600007-21.6500015,16.3700008-11.6200027c5.0100002,5.5199966,7.3899994,12.7900009,8.5100002,18.2200012h1.8500004&#x9;&#x9;v0.7300034h-1.710001c0.1299992,0.6900024,0.25,1.3499985,0.3400002,1.9700012h2.5499992v0.7300034h-2.4400005&#x9;&#x9;c0.1000004,0.7399979,0.1800003,1.4000015,0.2399998,1.9700012h3.5999985v0.7300034h-3.5299988&#x9;&#x9;c0.0799999,0.9499969,0.0900002,1.5,0.0900002,1.5c-3.5599995-11.7200089-10.9500008-23.8700104-17.0200005-22.6800079&#x9;&#x9;S3.52,82.2399521,3.52,82.2399521z M29.5799999,116.5599518h7.0700016l1.0900002-0.7300034h-8.0900002&#x9;&#x9;C29.6299992,116.0699463,29.6100006,116.3199463,29.5799999,116.5599518z M29.5200005,97.6699524h4.170002V96.939949h-4.2399998&#x9;&#x9;C29.4699993,97.1799622,29.4899998,97.4199524,29.5200005,97.6699524z M34.2999992,99.6299515h-4.6000004&#x9;&#x9;c0.0200005,0.2399979,0.0400009,0.4899979,0.0599995,0.7300034h4.5400009V99.6299515z M36.1500015,103.0599518v-0.7300034&#x9;&#x9;h-6.2600002c0.0100002,0.25,0.0300007,0.4899979,0.0400009,0.7300034H36.1500015z M38.7900009,105.7599564v-0.7300034h-8.7799988&#x9;&#x9;c0.0100002,0.2399979,0.0200005,0.4899979,0.0200005,0.7300034H38.7900009z M108.8300018,99.6599579l9.5,2.1600037&#x9;&#x9;c0.5199966-0.5800018,1.0500031-1.1299973,1.5999985-1.6600037l-11.0400009-2.5100021&#x9;&#x9;C108.8700027,98.3299561,108.8600006,98.9999466,108.8300018,99.6599579z M108.9899979,94.9099579l13.4000015,3.0599976&#x9;&#x9;c-0.6100006,0.5-1.2200012,1.0400009-1.8199997,1.5999985l-11.6500015-2.6500015&#x9;&#x9;C108.9400024,96.2499466,108.9700012,95.5799561,108.9899979,94.9099579z M109.0999985,92.1599579l16.1200027,3.6800003&#x9;&#x9;c-0.7099991,0.4800034-1.4100037,0.9899979-2.0999985,1.5299988l-14.1100006-3.2200012&#x9;&#x9;C109.0500031,93.4899521,109.0800018,92.8299561,109.0999985,92.1599579z M109.2399979,89.4299622l19.2399979,4.3899994&#x9;&#x9;c-0.8199997,0.4499969-1.6299973,0.9400024-2.4300003,1.4700012l-16.9199982-3.8600006&#x9;&#x9;C109.1699982,90.7599564,109.2099991,90.0999527,109.2399979,89.4299622z M133.2299957,91.5099564&#x9;&#x9;c-1.2599945,0.5299988-2.5299988,1.1200027-3.7899933,1.7799988l-20.1600037-4.5999985&#x9;&#x9;c0.0400009-0.75,0.0899963-1.5,0.1399994-2.2399979C117.7399979,88.2599564,125.8300018,89.9899521,133.2299957,91.5099564z&#x9;&#x9; M158.5899963,87.4699631c0,0-8.8600006-0.9000015-19.2700043,1.9599991&#x9;&#x9;c-7.8500061-2.1900024-17.6699982-4.7300034-29.5500031-7.4199982c0.2900009-3.2399979,0.6600037-6.2900009,1.1200027-8.9700012&#x9;&#x9;C110.8899994,73.0399628,129.3699951,76.029953,158.5899963,87.4699631z M53.4700012,73.8499527&#x9;&#x9;c15.4499969,3.5599976,34.6500015,7.9300003,52.9499969,11.9400024c-0.0199966,0.75-0.0400009,1.4899979-0.0400009,2.2399979&#x9;&#x9;L53.4299965,75.9499512C53.4500008,75.2299576,53.4599991,74.529953,53.4700012,73.8499527z M53.4199982,76.6999512&#x9;&#x9;l52.9499969,12.0699997c-0.0100021,0.6699982-0.0100021,1.3499985-0.0100021,2.0199966L53.3899994,78.7199631&#x9;&#x9;C53.4000015,78.029953,53.4199982,77.3599625,53.4199982,76.6999512z M53.3899994,79.4599457l52.9700012,12.0699997&#x9;&#x9;c0,0.6800003,0.0100021,1.3499985,0.0100021,2.0199966L53.3800011,81.4699631&#x9;&#x9;C53.3800011,80.7899628,53.3800011,80.119957,53.3899994,79.4599457z M53.3699989,82.2199631l53.0099983,12.090004&#x9;&#x9;c0.0100021,0.6800003,0.0199966,1.3499985,0.0400009,2.0199966L53.3699989,84.2499466V82.2199631z M53.3800011,84.9899521&#x9;&#x9;l53.0600014,12.0999985c0.0100021,0.6900024,0.0400009,1.3700027,0.0599976,2.0400009L53.4000015,87.0099487&#x9;&#x9;C53.3899994,86.3299561,53.3800011,85.6599579,53.3800011,84.9899521z M56.3199997,119.3299561&#x9;&#x9;c-2.0900002-7.7900009-2.7799988-20.2799988-2.9199982-31.5599976l53.1200027,12.1100006&#x9;&#x9;c0.4199982,11.8000031,1.5500031,20.8499985,1.5500031,20.8499985c-1.4300003,3.3399963-3.5199966,13.909996-3.5199966,13.909996&#x9;&#x9;L56.3199997,119.3299561z M107.3600006,72.3299561c0,0-49.2799988-8.7999992-53.5-9.6800003&#x9;&#x9;c0,0-0.1800003,3.3499985-0.3199997,8.5400009c20.75,3.3700027,38.3899994,6.8399963,53.0600052,10.1100006&#x9;&#x9;C106.7600021,78.2699585,107.0100021,75.2499466,107.3600006,72.3299561z M62.9500008,69.779953&#x9;&#x9;c-1.5999985-0.1399994-5.920002-0.5199966-7.0999985-1.4800034c-0.5299988-0.4199982-0.5299988-1.2099991-0.2000008-1.6399994&#x9;&#x9;c0.4799995-0.6299973,1.4000015-0.6600037,2.1899986-0.6100006C67.3799973,66.6599579,64.9499969,69.9599457,62.9500008,69.779953z&#x9;&#x9; M52.0900002,75.6499557l-19.6499977-4.4800034c-0.3499985-0.8600006-0.6900005-1.6699982-1.0200005-2.4400024&#x9;&#x9;c5.2400017,1.2300034,12.3800011,2.8899994,20.6800003,4.8099976&#x9;&#x9;C52.0900002,74.2499466,52.0900002,74.9499512,52.0900002,75.6499557z M33.5900002,74.1999512&#x9;&#x9;c-0.2799988-0.7699966-0.5600014-1.5100021-0.8300018-2.2099991l19.329998,4.409996c0,0.6800003,0,1.3600006,0.0099983,2.0199966&#x9;&#x9;L33.5900002,74.1999512z M52.0999985,79.1599579c0,0.6900024,0,1.3600006,0.0099983,2.0199966l-17.4900017-3.9800034&#x9;&#x9;c-0.25-0.75-0.5-1.4800034-0.75-2.1900024L52.0999985,79.1599579z M52.1100006,81.9399567&#x9;&#x9;c0.0099983,0.6900024,0.0099983,1.3600006,0.0099983,2.0199966l-16.579998-3.7900009&#x9;&#x9;c-0.2299995-0.75-0.4500008-1.4700012-0.6699982-2.1699982L52.1100006,81.9399567z M52.1699982,86.7299576l-15.7999992-3.5999985&#x9;&#x9;c-0.2000008-0.7399979-0.3899994-1.4499969-0.5999985-2.1600037l16.3699989,3.7399979&#x9;&#x9;C52.1500015,85.3999557,52.1599998,86.0699463,52.1699982,86.7299576z M40.9900017,113.8599625H29.8299999&#x9;&#x9;c0.0200005-0.2399979,0.0300007-0.4800034,0.0499992-0.7300034h10.8900013&#x9;&#x9;c-0.0299988-0.6600037-0.0600014-1.3199997-0.0900002-1.9700012H29.9799995&#x9;&#x9;C29.9899998,110.91996,30,110.6799545,30.0100002,110.4299545h10.6200008&#x9;&#x9;c-0.0400009-0.6600037-0.0800018-1.3199997-0.1199989-1.9700012H30.0499992c0-0.2399979,0.0100002-0.4800034,0.0100002-0.7300034&#x9;&#x9;h10.3999996c-0.6899986-9.2299957-2.1500015-17.1800003-3.8800011-23.8000031l15.6100006,3.5599976&#x9;&#x9;c0.4700012,25.4599991,2.5499992,31.5800018,2.5499992,31.5800018L40.9900017,113.8599625z M137.7899933,137.9499512&#x9;&#x9;c0,0,1.3200073,0.3500061,2.3800049,1.3999939c0,0-7.0500031,3.5500031-8.8099976,12.4499969&#x9;&#x9;C131.3500061,151.8099518,131.4600067,141.9099579,137.7899933,137.9499512z M141.3200073,176.9699554&#x9;&#x9;c-7.5500031,1.1499939-15.3799973-9.1100006-17.4799957-22.9299927&#x9;&#x9;c-2.1100006-13.8099976,2.3000031-25.9400024,9.8500061-27.0999985c7.5500031-1.1500015,15.3699951,9.109993,17.4799957,22.9300003&#x9;&#x9;C153.2700043,163.6899567,148.8699951,175.8099518,141.3200073,176.9699554z M147.5599976,149.9399567&#x9;&#x9;c-1.3200073-8.6799927-6.2100067-14.8999939-10.9700012-14.3999939c-2.5200043,0.2700043-8.6399994,8.3399963-7.3200073,17.0200043&#x9;&#x9;c1.3200073,8.6699982,9.0200043,15.1199951,12.1000061,14.3899994&#x9;&#x9;C146.0500031,165.8599548,148.8800049,158.6099548,147.5599976,149.9399567z M103.8399963,141.7099609l0.5899963-6.2299957&#x9;&#x9;l-14-4.5299988l-19.8700027-1.4199982L103.8399963,141.7099609z M193.8099976,131.279953&#x9;&#x9;c-4.6499939-1.0899963-8.2899933-8.8199997-7.6799927-14.0100021c0.7899933-6.7300034,5.7400055-8.0800018,5.7400055-8.0800018&#x9;&#x9;s-6.6199951-0.5599976-7.4400024,7.909996c-0.7599945,7.9199982,4.1600037,15.1199951,9.6399994,16.1000061&#x9;&#x9;c5.3099976,0.9600067,7.3399963-4.4900055,7.4499969-4.8000031&#x9;&#x9;C199.9900055,130.3599548,197.7299957,132.1999512,193.8099976,131.279953z M280.6400146,107.6699524&#x9;&#x9;c1.0100098,5.1900024,3.8200073,8,6.1499939,9.6900024c4.5799866,3.3300018,9.3900146,1.7799988,9.3900146,1.7799988&#x9;&#x9;c-4.75,3.6999969-13.0799866,1.0699997-16.4400024-8.5c-3.5400085-10.0599976,4.5599976-14.5999985,4.5599976-14.5999985&#x9;&#x9;C280.0100098,99.529953,280.0799866,104.7699585,280.6400146,107.6699524z M299.8699951,112.0699463&#x9;&#x9;c3.1000061,8.9799957,0.3999939,14.8000031,0.3999939,14.8000031c0.0700073-4.75-3.7600098-6.3499985-3.7600098-6.3499985&#x9;&#x9;C301.1900024,118.5399628,299.8699951,112.0699463,299.8699951,112.0699463z M258.4299927,79.3399582l28.769989,14.9000015&#x9;&#x9;c-5.8099976-0.6600037-12.4700012,4.6100006-12.019989,12.4100037c0.7999878,13.5999985,11.3599854,18.75,15.8500061,17.6900024&#x9;&#x9;c4.4899902-1.0500031,4.8800049,3.8399963,4.8800049,3.8399963s-16.2799988,4.2400055-27.5799866,4.5899963&#x9;&#x9;C276.0700073,96.3999557,258.8800049,79.7699585,258.4299927,79.3399582z M55.1599998,45.6299553l34.7700005-19.8700008&#x9;&#x9;l-0.0199966,0.8600006L56.3200035,45.7999573L55.1599998,45.6299553z M93.8199997,23.5199642l-1.8899994,1.0799999&#x9;&#x9;l-0.0199966,0.8600006l3.25-1.8600006L93.8199997,23.5199642z M88.8899994,23.239954L50.8600006,44.9699554l1.1599998,0.1800003&#x9;&#x9;l37.9599953-21.6900005l0.2300034-0.1299992L88.8899994,23.239954z M83.9499969,22.949955L46.5599976,44.3199539&#x9;&#x9;l1.1599998,0.1800003l37.5699959-21.4699993L83.9499969,22.949955z M79.0199966,22.6599541L46.2999954,41.3599548&#x9;&#x9;c-0.0400009,0.3199997-0.0800018,0.6300011-0.1199989,0.9099998l34.1599998-19.5200005L79.0199966,22.6599541z&#x9;&#x9; M59.2700005,21.5099449l-9,5.1399994c-0.1800003,0.3700008-0.3699989,0.7600002-0.5299988,1.1499996l10.8699989-6.210001&#x9;&#x9;L59.2700005,21.5099449z M64.2099991,21.7999439l-15.5699997,8.8999996&#x9;&#x9;c-0.1199989,0.3400002-0.2200012,0.6900005-0.3199997,1.0300007l17.2200012-9.8500004L64.2099991,21.7999439z&#x9;&#x9; M69.1399994,22.0899448L47.5999985,34.3999443c-0.0800018,0.3300018-0.1500015,0.6500015-0.2299995,0.9700012&#x9;&#x9;l23.1099968-13.2099991L69.1399994,22.0899448z M74.0699997,22.3799438L46.8499985,37.9399452&#x9;&#x9;c-0.0600014,0.3199997-0.1199989,0.6300011-0.1699982,0.9399986l28.7300034-16.4200001L74.0699997,22.3799438z M106.75,44.9599457&#x9;&#x9;l-0.1800003-0.7400017l-12.7300034,7.2700005L95,51.6699448L106.75,44.9599457z M107.4199982,47.6799545l-0.1800003-0.7400017&#x9;&#x9;l-9.0999985,5.2000008l1.1600037,0.1800003L107.4199982,47.6799545z M108.0599976,50.4299545&#x9;&#x9;c-0.0100021-0.1300011-0.0299988-0.2599983-0.0599976-0.3899994l-0.0899963-0.3600006l-5.4700012,3.1300011l1.1600037,0.1800003&#x9;&#x9;L108.0599976,50.4299545z M77.8099976,49.0599556l11.6800003-6.670002l0.0199966-0.8600006l-12.8600006,7.3499985&#x9;&#x9;L77.8099976,49.0599556z M103.8899994,33.3199539l-12.3700027,7.0699997L91.5,41.2499542l12.5699997-7.1800003&#x9;&#x9;L103.8899994,33.3199539z M73.5100021,48.4099541l16.0599976-9.1800003l0.0199966-0.8499985l-17.2399979,9.8500023&#x9;&#x9;L73.5100021,48.4099541z M103.2200012,30.5899448l-11.6100006,6.6400013l-0.0199966,0.8600006l11.8199997-6.75&#x9;&#x9;L103.2200012,30.5899448z M69.2099991,47.7499542l20.4400024-11.6800003l0.0199966-0.8499985L68.0499954,47.5799561&#x9;&#x9;L69.2099991,47.7499542z M102.5599976,27.8699551l-10.8700027,6.210001l-0.0199966,0.8600006l11.0699997-6.3199997&#x9;&#x9;L102.5599976,27.8699551z M64.9100037,47.0999451l24.8199997-14.1800003L89.75,32.0599442l-26,14.8699989L64.9100037,47.0999451z&#x9;&#x9; M102,25.6199551c-0.0400009-0.1599998-0.0899963-0.3099995-0.1600037-0.4599991l-10.0699997,5.75L91.75,31.7699566&#x9;&#x9;l10.3199997-5.8999996L102,25.6199551z M60.6199989,46.449955l29.2000008-16.6900005l0.0199966-0.8600006L59.4499969,46.279953&#x9;&#x9;L60.6199989,46.449955z M98.75,23.8199539l-6.9000015,3.9500008l-0.0199966,0.8500004l8.2600021-4.7199993L98.75,23.8199539z&#x9;&#x9; M82.0999985,49.7099457l7.3000031-4.1699982l0.0199966-0.8600006l-8.4899979,4.8499985L82.0999985,49.7099457z&#x9;&#x9; M104.5599976,36.0399551l-13.1200027,7.5l-0.0199966,0.8499985l13.3199997-7.6100006L104.5599976,36.0399551z&#x9;&#x9; M86.4000015,50.3599548l2.9199982-1.6699982l0.0199966-0.8600006l-4.0999985,2.3499985L86.4000015,50.3599548z&#x9;&#x9; M105.2300034,38.7599449l-13.8700027,7.9300003l-0.0199966,0.8600006l14.0800018-8.0499992L105.2300034,38.7599449z&#x9;&#x9; M105.9000015,41.4899559l-14.6299973,8.3500023l-0.0199966,0.8600006l14.8300018-8.4799995L105.9000015,41.4899559z&#x9;&#x9; M207.6000061,46.199955C206.4100037,42.6299553,201.5,26.3799553,196.9700012,23.4199543&#x9;&#x9;c-4.1600037-2.7000008-10.3600006-3.3600006-29.8999939-3.7600002c-15.7899933-0.3199997-45.5800018,0.4099998-54.75,5.3299999&#x9;&#x9;c-0.6600037,0.3600006-1.1399994,0.7099991-1.4499969,1.1200008l30.1800079-4.1300011&#x9;&#x9;c-0.3999939,0.25-0.8500061,0.5599995-1.3399963,0.9200001l-29.2600021,4.0100002&#x9;&#x9;c-0.1600037,0.5300007-0.1699982,1.1800003-0.0599976,2l26.6299973-3.6499996&#x9;&#x9;c-0.2599945,0.2700005-0.5299988,0.5499992-0.8000031,0.8500004l-25.7099991,3.5200005&#x9;&#x9;c0.0400009,0.2600002,0.0899963,0.5400009,0.1600037,0.8299999c0,0,0.0899963,0.3999996,0.2600021,1.1000004l23.4799957-3.2199993&#x9;&#x9;c-0.1900024,0.2600002-0.3899994,0.5300007-0.5800018,0.8199997l-22.7299957,3.1099987&#x9;&#x9;c0.1200027,0.5499992,0.2799988,1.1899986,0.4499969,1.9199982l20.9299927-2.8699989&#x9;&#x9;c-0.1499939,0.2600002-0.3000031,0.5300007-0.4499969,0.7999992l-20.3099976,2.7799988&#x9;&#x9;c0.1500015,0.6100006,0.3000031,1.2400017,0.4700012,1.9199982L131,34.2599449&#x9;&#x9;c-0.1199951,0.2599983-0.2299957,0.5200005-0.3399963,0.7900009l-18.3000031,2.5&#x9;&#x9;c0.1500015,0.6199989,0.3199997,1.2599983,0.4899979,1.9199982l17.0000076-2.3199997&#x9;&#x9;c-0.0899963,0.2599983-0.1799927,0.5099983-0.2599945,0.7700005l-16.5599976,2.2700005&#x9;&#x9;c0.1699982,0.6399994,0.3399963,1.2700005,0.5199966,1.9199982l15.4200058-2.1100006&#x9;&#x9;c-0.0700073,0.2599983-0.1399994,0.5099983-0.1999969,0.7700005l-15.0200043,2.0499992&#x9;&#x9;c0.1800003,0.6399994,0.3700027,1.2799988,0.5599976,1.9099998l14-1.9199982c-0.0599976,0.25-0.1000061,0.5-0.1499939,0.7599983&#x9;&#x9;l-13.6500015,1.8600006c0.1999969,0.6599998,0.3899994,1.2900009,0.5999985,1.9099998l12.7099991-1.7400017&#x9;&#x9;c-0.0400009,0.25-0.0699997,0.5-0.0999985,0.75l-12.3700027,1.7000008&#x9;&#x9;c0.2300034,0.6699982,0.4599991,1.3100014,0.6900024,1.8899994l11.4599991-1.5600014c-0.0199966,0.25-0.0400009,0.5-0.0699997,0.75&#x9;&#x9;l-11.1200027,1.5200005c0.3099976,0.75,0.6200027,1.3800011,0.9100037,1.8600006l10.0800018-1.3699989&#x9;&#x9;c-0.0100021,0.2400017-0.0199966,0.4900017-0.0299988,0.7400017l-9.5800018,1.3100014&#x9;&#x9;c2.5,3.2700005,4.3099976,3.0600014,14.0200043-0.1800003c10.0399933-3.3499985,46.8600006-6.1399994,69.8500061-3.079998&#x9;&#x9;C205.8899994,50.4699554,208.7899933,49.7599449,207.6000061,46.199955z M195.3699951,12.6699657&#x9;&#x9;c-5.1000061-1.75-33.9700012-9.8500004-40.1300049-10.5500002c-6.1600037-0.7100002-66-3.52-82.7300034-1.2400001&#x9;&#x9;C60.9399986,2.4699655,49.8800011,7.3299651,42.6399994,14.5599661c2.4000015-0.3400002,4.7399979-0.5799999,6.0900002-0.4700003&#x9;&#x9;c13.9099998,1.1899996,28.3699989,4.6599998,38.3599968,7.4599991c7.4100037,0.3099995,14.4599991,0.3700008,17.4599991-0.2600002&#x9;&#x9;c7.5599976-1.5799999,28.340004-5.2800007,45.590004-5.6299992c17.25-0.3500004,41.8899994,0.6999989,51.0399933,3.1599998&#x9;&#x9;C201.1799927,18.8299541,200.4799957,14.429966,195.3699951,12.6699657z M40.3499985,42.8399544&#x9;&#x9;c0,0,2.1100006,0.9199982,3.2999992,0.9199982c0,0,1.7799988-19.3999996,13.0699997-22.5100002&#x9;&#x9;C56.7200012,21.2499542,44.7700005,20.719944,40.3499985,42.8399544z M99.6900024,25.4299641&#x9;&#x9;c0.0699997,0.0300007,0.1200027,0.0400009,0.1500015,0.0499992C99.8099976,25.4799557,99.7600021,25.449955,99.6900024,25.4299641z&#x9;&#x9; M26.8500004,59.8399544c0.0100002,0.0099983,1.8299999,2.6800003,4.1599998,7.920002&#x9;&#x9;c7.3700008,1.0500031,14.4099979,2.1200027,21.1200008,3.1999969c0.0200005-2.6999969,0.0600014-5.5299988,0.1100006-8.5200005&#x9;&#x9;c0.0299988-0.4500008,0.0800018-0.8600006,0.1500015-1.2299995c-9.4799995-1.9399986-16.5-3.3800011-17.1399994-3.5200005&#x9;&#x9;c5.2299995,0.6300011,11.2099991,1.4399986,17.4900017,2.3400002c0.9099998-2.2200012,2.7299995-2.0800018,2.8899994-3.1699982&#x9;&#x9;c0.6399994-4.5299988,2.4099998-8.5400009,2.4099998-8.5400009s-3.2999992-0.4900017-12.3500023-2.0800018&#x9;&#x9;c-4.8699989-0.8499985-7.1899986-1.7799988-8.2900009-2.4700012c2.0200005-7.7299995,5.6599998-16.5,9.8199997-20.4099998&#x9;&#x9;c4.7600021-4.4699993,16.5-3.2999992,16.5-3.2999992s10.1200027,0.8600006,20.4599991,1.3500004&#x9;&#x9;c-10.2200012-2.1700001-25-4.539999-43.0400009-5.25C38.6599998,18.9699516,36.75,22.109951,35.5699997,25.5099525&#x9;&#x9;c-1.8699989,5.3999996-3.4700012,10.8800011-5.1300011,16.3400002c-0.4200001,1.3699989-0.8400002,2.7599983-1.3500004,4.0999985&#x9;&#x9;c-1.1299992,2.9500008-3.1700001,5.4199982-3.9300003,8.5299988c-0.3500004,1.4399986-0.5,3.2000008,0.4599991,4.4399986&#x9;&#x9;C25.9099998,59.3199539,26.3600006,59.7099457,26.8500004,59.8399544z M56.9399986,58.0799637&#x9;&#x9;c-1.4300003,0.2900009-2.2099991,1.3199997-2.6199989,2.1800003c23.0999985,3.3499985,49.5999985,7.8000031,57.4800034,9.1399994&#x9;&#x9;c1.0500031-1.8899994-4.5199966-13.5699997-4.5199966-13.5699997l-47.7200012-7.3800011&#x9;&#x9;C57.6100006,51.4199448,56.9399986,58.0799637,56.9399986,58.0799637z M302.1799927,187.0499573&#x9;&#x9;c-2.1499939,0.5099945-116.9499969,8.7100067-116.9499969,8.7100067c-11.6600037,0.0599976-21.0500031-0.5-29.3199921-1.9400024&#x9;&#x9;c6.5599976-3.8099976,9.9100037-10.1300049,11.6199951-15.5200043c-0.5500031,0.9900055-1.1300049,1.9700012-1.7700043,2.8899994&#x9;&#x9;c-2.8899994,4.2299957-10.1600037,10.9100037-18.1000061,10.3399963&#x9;&#x9;c-5.1699982-0.3699951-10.2299957-1.9799957-19.1800079-7.5800018&#x9;&#x9;c-11.2700043-7.0500031-17.1500015-19.0200043-25.1699982-23.3999939&#x9;&#x9;c-16.2900009-8.9199982-37.8099976-14.9400024-52.2000008-20.3500061c-4.2900009-1.6199951-8-3.0500031-12.3999977-2.9700012&#x9;&#x9;c-25.7800007,0.4199982-30.5200005-7.6799927-30.5200005-7.6799927l6.6199999-1.0099945&#x9;&#x9;c2.0700006,3.1300049,4.4399996,4.8800049,6.8100004,4.6399994c2.7000008-0.2700043,4.8999996-3.0700073,6.3099995-7.4300003&#x9;&#x9;c0.0799999-0.2600021,0.1599998-0.5299988,0.2399998-0.8000031c0.2600002-0.8600006,0.4500008-1.6699982,0.5900002-2.3899994&#x9;&#x9;c0.2399998-1.1100006,0.3700008-1.9899979,0.4200001-2.4100037c0.0100002-0.0599976,0.0100002-0.1100006,0.0200005-0.1500015&#x9;&#x9;s0.0100002-0.0899963,0.0100002-0.1200027l0.9200001,1.3700027h11.3700008c0,0,48.0800018,19.2900085,60.5899963,23.2700043&#x9;&#x9;l3.3300018,3.4600067l1.9400024-0.9900055c2.8199997-30.8000031,13.5500031-41.1800003,20.7700043-42.7700043&#x9;&#x9;c4.1900024-0.9199982,9.2299957,2.75,12.7299957,5.9899979c3.4199982,4.5400009,7.5800018,11.2600021,12.4799957,21.2199936&#x9;&#x9;c5.9499969,12.1000061,13.0200043,18.4599915,19.5200043,21.6900024c0.1100006-0.1499939,0.2299957-0.2700043,0.3699951-0.3699951&#x9;&#x9;c2.0899963-1.4900055,6.4799957-1.8099976,10.6999969-1.9299927v-0.2799988l-5.1000061,0.2400055l-0.0399933-0.7299957&#x9;&#x9;l5.1399994-0.25v-1.9700012l-4.2599945,0.1999969l-0.0399933-0.7299957l4.3000031-0.2100067v-0.8099976&#x9;&#x9;c0,0-0.0299988-0.4600067,0.0800018-1.1600037l-4.3000031,0.2100067l-0.0399933-0.7299957l4.4900055-0.2200012&#x9;&#x9;c0.1600037-0.6100006,0.4400024-1.3099976,0.8899994-2.0099945l-4.8800049,0.2299957l-0.0399933-0.7299957l5.4700012-0.2599945&#x9;&#x9;c0.6600037-0.7899933,1.5899963-1.5299988,2.8800049-2.1100006l-7.7200012,0.3699951l-0.0399933-0.7299957l9.9199982-0.4799957&#x9;&#x9;c-1.3300018-0.3800049-2.5700073-1.0099945-3.7299957-1.7899933l-8.1300049,0.3899994l-0.0399933-0.7299957l7.2299957-0.3500061&#x9;&#x9;c-0.7100067-0.5599976-1.3800049-1.1900024-2.0099945-1.8699951l-8.4700012,0.4100037l-0.0399933-0.7299957l7.8800049-0.3800049&#x9;&#x9;c-0.5099945-0.6100006-1-1.2400055-1.4499969-1.8999939l-9.25,0.4499969l-0.0399933-0.7299957l8.8199921-0.4199982&#x9;&#x9;c-0.3999939-0.6199951-0.7599945-1.2599945-1.1000061-1.9100037l-8.9600067,0.4299927l-0.0399933-0.7299957l8.6300049-0.4100037&#x9;&#x9;c-0.2899933-0.5999985-0.5500031-1.25-0.7799988-1.9300003l-8.5599976,0.4100037l-0.0399933-0.7300034l8.3699951-0.4000015&#x9;&#x9;c-0.1900024-0.6299973-0.3500061-1.2799988-0.4799957-1.9499969l-7.2700043,0.3499985l-0.0299988-0.7300034l7.1699982-0.3499985&#x9;&#x9;c-0.1000061-0.6399994-0.1799927-1.3000031-0.2299957-1.9599991l-5.7299957,0.2699966l-0.0399933-0.7300034l5.7200012-0.2699966&#x9;&#x9;c-0.2400055-5.4800034,1.4900055-11.1200027,6.3800049-13.0599976c6.6900024-2.6399994,11.9700012,1.6699982,11.9700012,1.6699982&#x9;&#x9;l0.1499939,0.2900009c-2.1199951-1.4000015-4.6600037-2.1100006-7.6300049-1.6999969&#x9;&#x9;c-4.0700073,0.5599976-8.4499969,6.159996-6.4199982,15.1399994c2.4600067,10.909996,9.4900055,13.4300003,13.8200073,13.109993&#x9;&#x9;c5.0399933-0.3699951,8.2700043-5.3600006,8.1499939-11.1600037c0-0.0500031,0-0.0999985,0-0.1500015l11.6100006-0.5599976&#x9;&#x9;c-0.5299988-0.6299973-1.0800018-1.2600021-1.6199951-1.9000015l-10.1699982,0.4899979&#x9;&#x9;c-0.0399933-0.2399979-0.0800018-0.4800034-0.1399994-0.7200012l9.6999969-0.4700012&#x9;&#x9;c-0.5899963-0.6800003-1.1900024-1.3600006-1.7899933-2.0400009l0.0099945,0.1600037l-8.4100037,0.4000015&#x9;&#x9;c-0.0700073-0.2399979-0.1499939-0.4800034-0.2299957-0.7200012l8.1399994-0.3899994&#x9;&#x9;c-7.5700073-8.4499969-16.3200073-16.9199982-26.0700073-22.6299973&#x9;&#x9;c-24.6399994-14.4300003-56.8500061-23.7600021-68.6399994-26.0500031c0,0-1.0599976-12.2200012,27.1000061-15.5600014&#x9;&#x9;l21.7899933-1.0499992l7.1900024-0.4300003c25.8699951,4.4000015,41.0700073,11.2300034,61.6600037,34.6399994&#x9;&#x9;c7.0599976,8.0199966,11.7599945,17.4800034,14.8899994,26.4599991l2.2200012-0.1100006l0.0399933,0.7300034l-2.0099945,0.0999985&#x9;&#x9;c0.2200012,0.6500015,0.4299927,1.3000031,0.6399994,1.9400024l4.7200012-0.2300034l0.0399933,0.7300034l-4.5200043,0.2200012&#x9;&#x9;c0.1999969,0.6500015,0.3999939,1.3000031,0.5800018,1.9400024l8.2500153-0.4000015l0.0400085,0.7300034l-8.0800018,0.3899994&#x9;&#x9;c0.1900024,0.6500015,0.3600006,1.3000031,0.5299988,1.9400024l14.2299957-0.6800003&#x9;&#x9;c0.9299927-13.9599991-1.480011-36.2600021-21.8600006-53.2900009c0.8600006,0.4700012,32.4900055,17.9799957,22.719986,64.75&#x9;&#x9;c-0.8699951,0.0700073-1.730011,0.1199951-2.5899963,0.1799927c0.1700134-0.6999969,0.3800049-1.6300049,0.6000061-2.7400055&#x9;&#x9;l-11.1399994,0.5299988c0.1699982,0.8899994,0.3200073,1.7599945,0.4499969,2.6000061&#x9;&#x9;c-2.5899963,0.0399933-5.1199951,0.0399933-7.5500031,0.0099945c0.7799988-0.3699951,1.3600006-1.1199951,1.6399994-2.3500061&#x9;&#x9;l-9.3999939,0.4499969c1.3000031,0.75,2.6799927,1.4299927,3.9900055,1.8300018&#x9;&#x9;c-7.3800049-0.1799927-13.7799988-0.6300049-18.4400024-1.0500031l-21.5500031,1.0299988&#x9;&#x9;c-0.9499969,2.0599976-2.5,3.9299927-4.9799957,4.9400024c14.7700043-0.1499939,52.1600037-1.1000061,60.5800018-1.8200073&#x9;&#x9;c9.1499939-0.8000031,28.2099915-4.5599976,36.1900024-7.4299927c5.3099976-1.9100037,8.7000122-4.0299988,10.3900146-5.2399979&#x9;&#x9;c2.3500061-2.3899994,4.2200012-1.2200012,4.5499878,0.2600021c0.3500061,1.5899963,0.5299988,15.4900055-0.1799927,16.8999939&#x9;&#x9;c-0.7000122,1.3999939-8.980011,6.5099945-8.980011,6.5099945c0,1.75-0.3500061,4.3999939-2.4599915,5.1999969&#x9;&#x9;c-1.3399963,0.5-3.0499878-0.1000061-4.1000061-0.6100006c2.2099915-2.8300018,2.1900024-9.1699982,1.9400024-12.9799957&#x9;&#x9;c0.0100098,0,0.0100098-0.0099945,0.0100098-0.0099945l-0.0899963-7.4600067&#x9;&#x9;c-6.3299866,2.5700073-15.5700073,5.4199982-28.3900146,7.4100037c-7.4899902,1.1600037-20.2200012,1.8600006-32.9299927,2.2799988&#x9;&#x9;c-0.9400024,0.0500031-1.8099976,0.0800018-2.5899963,0.0800018c-0.0299988,0-0.0700073,0-0.1000061,0&#x9;&#x9;c0.3200073,0.0299988,11.4400024,0.9400024,22.1799927,0.2899933c0.3300018-0.0200043,0.6499939-0.0399933,0.9799957-0.0599976&#x9;&#x9;c0.0800018-0.0099945,0.1499939-0.0099945,0.2299957-0.0200043c9.6900024-0.6900024,19.2000122-2.0800018,24.769989-3.6399994&#x9;&#x9;c0.7900085-0.2200012,1.5599976,0.3899994,1.5599976,1.2100067v3.9100037&#x9;&#x9;c5.3699951-1.1100006,10.0100098-2.3200073,13.269989-3.5700073c0.2799988,2.6199951,0.2200012,6.4199982-0.3900146,8.4600067&#x9;&#x9;c-0.6400146,2.1499939-1.3699951,2.9700012-1.7999878,3.6399994c-0.9400024,0.3099976-1.980011,0.6100006-3.0799866,0.8999939&#x9;&#x9;c-0.1600037,0.7700043-2.1799927,9.5599976-12.0799866,13.4700012c-0.7799988,0.3600006-1.5599976,0.6399994-2.2900085,0.7799988&#x9;&#x9;c-0.0400085,0.0099945-0.0700073,0.0099945-0.1199951,0.0200043c-0.2399902,0.0700073-0.480011,0.1399994-0.7200012,0.1999969&#x9;&#x9;c0.230011,0.1000061,8.5700073-1.2100067,13.1300049-3.75c0.0100098,0.0099945,0.0299988,0.0099945,0.0400085,0.0099945&#x9;&#x9;C320.3999939,173.5899506,321.7799988,182.4099579,302.1799927,187.0499573z M300.4400024,137.9399567&#x9;&#x9;c0,0,5.9899902-3.1600037,7.0400085-4.75c0.8500061-1.2599945,0.3399963-3.3300018,0.1000061-6.1800003&#x9;&#x9;c-0.0400085-0.5599976-0.6400146-0.9000015-1.1499939-0.6600037l-0.6900024,0.3399963&#x9;&#x9;c-1.1300049,0.7300034-2.8699951,1.7600021-5.2999878,2.9500046v8.3000031H300.4400024z M265.5,127.5799561l-12.1300049,0.5800018&#x9;&#x9;c0.1399994,0.6600037,0.2700043,1.3099976,0.3899994,1.9499969l11.4099884-0.5500031&#x9;&#x9;C265.2799988,128.9499512,265.3999939,128.2899475,265.5,127.5799561z M265.8599854,124.8599625l-13.0800018,0.6299973&#x9;&#x9;c0.1499939,0.6600037,0.3000031,1.3099976,0.4400024,1.9499969l12.3899994-0.5899963&#x9;&#x9;C265.7000122,126.2199631,265.7799988,125.5499573,265.8599854,124.8599625z M252.1300049,122.8199463&#x9;&#x9;c0.1699982,0.6600037,0.3300018,1.3000031,0.4799957,1.9499969l13.3300018-0.6399994&#x9;&#x9;c0.0700073-0.6399994,0.1300049-1.3000031,0.1799927-1.9800034L252.1300049,122.8199463z M248.6000061,128.3899536&#x9;&#x9;l-13.3899994,0.6399994c0.75,0.5500031,1.6799927,1.1900024,2.7100067,1.8399963l10.6399994-0.5099945&#x9;&#x9;C248.6300049,129.7999573,248.6399994,129.1399536,248.6000061,128.3899536z M248.2700043,125.7099457l-15.9300079,0.7600021&#x9;&#x9;c0.3699951,0.4100037,0.7400055,0.8199997,1.1300049,1.2300034c0.0399933,0.0299988,0.3399963,0.2799988,0.8200073,0.6499939&#x9;&#x9;l14.2400055-0.6800003C248.4499969,127.0199585,248.3699951,126.369957,248.2700043,125.7099457z M247.8300018,123.029953&#x9;&#x9;l-17.7700043,0.8499985c0.5299988,0.6200027,1.0800018,1.25,1.6499939,1.8899994l16.4499969-0.7900009&#x9;&#x9;C248.0599976,124.3399582,247.9499969,123.6799622,247.8300018,123.029953z M247.2899933,120.3499527l-19.3399963,0.9300003&#x9;&#x9;c0.4700012,0.6200027,0.9799957,1.25,1.5200043,1.9000015l18.2299957-0.8700027&#x9;&#x9;C247.5700073,121.6599579,247.4400024,121.0099564,247.2899933,120.3499527z M246.6499939,117.6799622l-20.6999969,0.9899979&#x9;&#x9;c0.4799957,0.6299973,0.9700012,1.25,1.4499969,1.8899994l0.0099945,0.0100021l19.7200012-0.9499969&#x9;&#x9;C246.9799957,118.9799576,246.8200073,118.3299561,246.6499939,117.6799622z M245.9100037,115.0099564l-22.0200043,1.0599976&#x9;&#x9;c0.5099945,0.6299973,1.0200043,1.2600021,1.5200043,1.9000015l21.0500031-1.0100021&#x9;&#x9;C246.2899933,116.3099518,246.1100006,115.6699524,245.9100037,115.0099564z M245.0599976,112.3499527l-23.3399963,1.1200027&#x9;&#x9;c0.5399933,0.6200027,1.0599976,1.2600021,1.5899963,1.8899994l22.3800049-1.0699997&#x9;&#x9;C245.4900055,113.6499557,245.2799988,112.9999466,245.0599976,112.3499527z M244.0800018,109.6999512l-24.6499939,1.1800003&#x9;&#x9;c0.5599976,0.6200027,1.1100006,1.2600021,1.6699982,1.8899994l23.6999969-1.1399994&#x9;&#x9;C244.5700073,110.9899521,244.3300018,110.3499527,244.0800018,109.6999512z M242.9900055,107.0499573L217,108.2999573&#x9;&#x9;c0.5899963,0.6200027,1.1799927,1.25,1.7700043,1.8899994l25.0299988-1.1999969&#x9;&#x9;C243.5399933,108.3399582,243.2700043,107.6999512,242.9900055,107.0499573z M139.2899933,57.4199448l37.4199982-1.7999992&#x9;&#x9;c-3.5-0.7900009-6.4700012-1.2999992-8.6300049-1.6199989l-25.6399994,1.2400017&#x9;&#x9;C141.4799957,55.7599449,140.2700043,56.5099449,139.2899933,57.4199448z M137.6000061,60.2799454l47.6999969-2.3899994&#x9;&#x9;c-2.1799927-0.6599998-4.2599945-1.2299995-6.2100067-1.7099991l-40.4700012,1.9399986&#x9;&#x9;C138.0399933,58.7899551,137.6499939,59.5199547,137.6000061,60.2799454z M138.8099976,62.8399544l53.4900055-2.5699997&#x9;&#x9;c-1.75-0.6599998-3.4700012-1.2599983-5.1499939-1.7999992l-49.5099945,2.4799995&#x9;&#x9;C137.7599945,61.5799637,138.1199951,62.199955,138.8099976,62.8399544z M143.3500061,65.3299561l54.8300018-2.6300011&#x9;&#x9;c-1.4499969-0.6500015-2.8999939-1.2599983-4.3300018-1.8199997l-54.2400055,2.5999985&#x9;&#x9;c0.8800049,0.6099968,2.0700073,1.2299995,3.6699982,1.8200035&#x9;&#x9;C143.3000031,65.2999573,143.3200073,65.3199463,143.3500061,65.3299561z M205.0700073,97.3299561l31.8399963-1.5299988&#x9;&#x9;c-3.7200012-5.6999969-8.5299988-11.5500031-14.7899933-17.4799957&#x9;&#x9;c-6.9400024-6.5800018-14.8699951-11.4400024-22.5899963-15.0100021l-54.5399933,2.6200027&#x9;&#x9;c8.9100037,3.1999969,27.1000061,9.2099991,46.0200043,21.2700043l14.0299988-0.6699982l0.0399933,0.7300034l-13.0099945,0.6200027&#x9;&#x9;c0.9199982,0.5999985,1.8399963,1.2099991,2.7700043,1.8399963l14.6199951-0.6999969l0.0399933,0.7300034l-13.6499939,0.6600037&#x9;&#x9;c0.8699951,0.5999985,1.7400055,1.2200012,2.6000061,1.8499985l15.6600037-0.75l0.0399933,0.7300034l-14.7400055,0.7099991&#x9;&#x9;c0.8200073,0.5999985,1.6399994,1.2200012,2.4499969,1.8499985l19.4599915-0.9300003l0.0399933,0.7300034l-18.6000061,0.8899994&#x9;&#x9;C203.5099945,96.0799561,204.2899933,96.6999512,205.0700073,97.3299561z M208.1199951,99.889946l30.4299927-1.4599991&#x9;&#x9;c-0.3800049-0.6399994-0.7700043-1.2699966-1.1799927-1.9100037l-31.4700012,1.5100021&#x9;&#x9;C206.6399994,98.6299515,207.3800049,99.2499466,208.1199951,99.889946z M240.0500031,101.0499573&#x9;&#x9;c-0.3500061-0.6399994-0.7100067-1.2799988-1.0899963-1.9199982l-30.0699921,1.4400024&#x9;&#x9;c0.6999969,0.6200027,1.3999939,1.2300034,2.1000061,1.8700027L240.0500031,101.0499573z M241.4299927,103.6899567&#x9;&#x9;c-0.3200073-0.6399994-0.6499939-1.2799988-0.9900055-1.9199982l-28.6900024,1.3799973&#x9;&#x9;c0.6600037,0.6200027,1.3300018,1.2399979,1.9900055,1.8700027L241.4299927,103.6899567z M216.3200073,107.5999527&#x9;&#x9;l26.3500061-1.2600021c-0.2899933-0.6399994-0.5800018-1.2799988-0.8899994-1.9300003l-27.3399963,1.3099976&#x9;&#x9;C215.0700073,106.3299561,215.6999969,106.9599457,216.3200073,107.5999527z M204.4900055,127.1699524l13.8000031-0.6600037&#x9;&#x9;c-0.5200043-0.6299973-1.0500031-1.25-1.5800018-1.8899994l-12.1800079,0.5800018&#x9;&#x9;C204.5399933,125.7199631,204.5399933,126.3999557,204.4900055,127.1699524z M204.1399994,129.8899536l16.2899933-0.7799988&#x9;&#x9;c-0.5099945-0.6300049-1.0299988-1.25-1.5599976-1.8899994l-14.4400024,0.6900024&#x9;&#x9;C204.3699951,128.529953,204.2799988,129.1999512,204.1399994,129.8899536z M203.3600006,132.6299591l19.2100067-0.9199982&#x9;&#x9;c-0.5099945-0.6199951-1.0200043-1.25-1.5500031-1.8999939l-17.0399933,0.8200073&#x9;&#x9;C203.8200073,131.2899475,203.6199951,131.9699554,203.3600006,132.6299591z M41.1399994,121.9599457H30.6299992&#x9;&#x9;c1.7600002,2.3899994,9.0599995,1.1500015,9.9499989,1l0.0900002-0.0199966L41.1399994,121.9599457z M156.25,149.8499603&#x9;&#x9;c-2.8699951-18.8099976-13.5299988-32.7799988-23.8099976-31.2200012&#x9;&#x9;c-10.2700043,1.5699997-16.2700043,18.0899963-13.4000015,36.8999939s13.5199966,32.7799988,23.7999954,31.2200012&#x9;&#x9;C153.1100006,185.1699524,159.1100006,168.6599579,156.25,149.8499603z M190.0500031,144.0799561l35.5800018-1.7100067v-0.7799988&#x9;&#x9;c-15.7299957,0.3899994-29.4299927,0.3999939-30.3699951,0.4499969&#x9;&#x9;C192.9199982,142.1499481,191.2200012,142.9499512,190.0500031,144.0799561z M188.3200073,146.8599548l37.3000031-1.7899933&#x9;&#x9;v-1.9700012l-36.2700043,1.7400055C188.8899994,145.4699554,188.5500031,146.1499481,188.3200073,146.8599548z&#x9;&#x9; M187.9700012,149.5799561l37.6499939-1.8099976v-1.9700012l-37.5,1.8000031&#x9;&#x9;c-0.0700073,0.3699951-0.1199951,0.7400055-0.1300049,1.1000061&#x9;&#x9;C187.9900055,148.9599609,187.9799957,149.2599487,187.9700012,149.5799561z M221.5899963,155.7499542l-30.2900085-1.8500061&#x9;&#x9;l-3.3500061-0.3899994l0.0200043,3.1600037L221.5899963,155.7499542z M225.6300049,150.0599518v-1.5599976l-37.6699982,1.8099976&#x9;&#x9;c0,0.1300049,0,0.2700043-0.0099945,0.4100037c8.8999939-0.1000061,22.5400085,0.0299988,36.6399994-0.6100006&#x9;&#x9;c0.3000031,2.3099976,0.75,6.9900055-0.0200043,9.6199951c-1.0500031,3.5899963-3.5200043,3.9799957-2.3699951,4.5099945&#x9;&#x9;c1.1499939,0.5299988,1.3200073,0.3300018,1.3200073,0.3300018&#x9;&#x9;C227.3500061,162.4199524,226.2100067,153.4499512,225.6300049,150.0599518z M252.0700073,144.6799469l-15.1499939,2.6199951&#x9;&#x9;c-1.4400024-0.8899994-3.1199951-2.4600067-5.0200043-4.5200043v6.9100037&#x9;&#x9;c5.3600006-0.3899994,12.1300049-1.0299988,19.3300018-1.8800049l0.8500061,4.3300018v-7.4599915H252.0700073z&#x9;&#x9; M107.5800018,23.1399555c-1.8899994,1.3099995-2.1900024,3.7399998-1.8099976,5.9400005&#x9;&#x9;c0.1399994,0.7800007,0.2799988,1.5499992,0.4400024,2.3199997c1.3499985,6.1100006,2.9899979,12.1300011,5.4700012,17.9300003&#x9;&#x9;c0.6399994,1.4399986,1.2900009,2.8899994,2.1900024,4.2600021c1.8099976,3.0800018,5,4.9899979,8.4300003,4.4300003&#x9;&#x9;c1.5599976-0.25,3.0599976-0.6899986,4.5299988-1.2099991c-1.5400009,0.2299995-3.0699997,0.4300003-4.590004,0.4599991&#x9;&#x9;c-3.0299988,0.0200005-5.2200012-1.5499992-6.6800003-4.2999992c-3.3899994-6.3800011-6.4599991-18.6399994-7.0599976-21.6399994&#x9;&#x9;c-0.5500031-2.5-1.8000031-5.8600006,1.0100021-7.25c2.5100021-1.3299999,5.3899994-1.7700005,8.3300018-2.4899998&#x9;&#x9;c5.9599991-1.3400002,13.1600037-1.710001,19.3000031-2.5900002&#x9;&#x9;C121.5500031,19.6699448,111.2099991,20.6299438,107.5800018,23.1399555z M29.2700005,119.2599564h8.7200012l-1.5099983-0.7300034&#x9;&#x9;h-7.1199989C29.3299999,118.7699585,29.2999992,119.0099564,29.2700005,119.2599564z"/>
          </g>
  </svg>